<svg width="213" height="84" viewBox="0 0 213 84" fill="none" xmlns="http://www.w3.org/2000/svg">
<g clip-path="url(#clip0_416_130)">
<path d="M0 21.1596V39.6608L36.1873 18.6077L56.5671 30.2684L52.5266 32.6431L36.1873 23.2507L22.0101 31.438L54.4405 50.2229L72.4101 39.6963V21.1596L36.1873 0.248169L0 21.1596Z" fill="#3D4647"/>
<path d="M0 44.3392V62.9114L36.2228 83.7873L72.4101 62.9114V44.3747L36.2228 65.4278L15.843 53.7671L19.8835 51.3924L36.1873 60.7848L50.3646 52.562L17.9342 33.7772L0 44.3392Z" fill="#5BB73B"/>
<path d="M122.385 26.1215C117.99 26.1215 114.517 27.6456 111.965 30.6937C109.519 33.5646 108.314 37.2152 108.314 41.6101C108.314 46.0051 109.555 49.6557 111.965 52.5266C114.517 55.5747 117.99 57.0987 122.385 57.0987C126.744 57.0987 130.253 55.5747 132.982 52.5266C135.534 49.6557 136.81 46.0051 136.81 41.6101C136.81 37.2152 135.534 33.5646 132.982 30.6937C130.253 27.6456 126.744 26.1215 122.385 26.1215ZM108.633 27.7519C111.894 22.9671 116.749 20.5924 123.2 20.5924C129.048 20.5924 133.833 22.6127 137.448 26.6886C141.099 30.6937 142.906 35.6557 142.906 41.5747C142.906 47.4937 141.099 52.4557 137.448 56.4962C133.798 60.5722 128.906 62.6279 122.775 62.6279C116.643 62.6279 111.894 60.2177 108.598 55.362V78.081H102.501V21.2304H108.598V27.7519H108.633Z" fill="#3D4647"/>
<path d="M154.567 61.9544V26.6177H146.274V21.2304H154.567V6.6633H160.663V21.2304H170.056V26.6177H160.663V61.9544H154.567Z" fill="#3D4647"/>
<path d="M194.724 57.0987C197.347 57.0987 199.651 56.3544 201.636 54.9013C203.656 53.4481 205.109 51.5342 206.03 49.1949H212.658C211.418 53.2 209.114 56.4253 205.818 58.8709C202.344 61.3873 198.198 62.6278 193.448 62.6278C187.458 62.6278 182.603 60.6076 178.846 56.5316C175.195 52.562 173.387 47.6 173.387 41.6101C173.387 35.6202 175.195 30.6582 178.846 26.6886C182.603 22.6127 187.458 20.5924 193.448 20.5924C198.233 20.5924 202.344 21.8329 205.818 24.3494C209.114 26.7949 211.418 30.0203 212.658 34.0608H206.066C205.144 31.7215 203.691 29.8076 201.671 28.3544C199.651 26.9013 197.347 26.157 194.76 26.157C192.137 26.157 189.939 26.5823 188.132 27.3975C186.324 28.2127 184.765 29.3114 183.524 30.7291C180.866 33.6709 179.519 37.2861 179.519 41.6456C179.519 46.0051 180.83 49.6202 183.524 52.562C186.218 55.5747 189.939 57.0987 194.724 57.0987Z" fill="#3D4647"/>
</g>
<defs>
<clipPath id="clip0_416_130">
<rect width="212.658" height="84" fill="white"/>
</clipPath>
</defs>
</svg>
